<svg width="24" height="24" viewBox="0 0 24 24" fill="none" xmlns="http://www.w3.org/2000/svg">
<mask id="mask0_106_4076" style="mask-type:alpha" maskUnits="userSpaceOnUse" x="0" y="0" width="24" height="24">
<rect width="24" height="24" fill="#D9D9D9"/>
</mask>
<g mask="url(#mask0_106_4076)">
<path d="M16.6115 13.7501H5.25C5.03717 13.7501 4.859 13.6782 4.7155 13.5346C4.57183 13.3911 4.5 13.2129 4.5 13.0001C4.5 12.7872 4.57183 12.6091 4.7155 12.4656C4.859 12.3219 5.03717 12.2501 5.25 12.2501H16.6115L13.3193 8.95783C13.1706 8.809 13.0972 8.63491 13.099 8.43558C13.101 8.23625 13.1744 8.059 13.3193 7.90383C13.4744 7.74883 13.6526 7.66875 13.8538 7.66358C14.0551 7.65841 14.2333 7.73341 14.3885 7.88858L18.8673 12.3673C18.9609 12.461 19.0269 12.5597 19.0652 12.6636C19.1037 12.7674 19.123 12.8796 19.123 13.0001C19.123 13.1206 19.1037 13.2327 19.0652 13.3366C19.0269 13.4404 18.9609 13.5392 18.8673 13.6328L14.3885 18.1116C14.2397 18.2602 14.0631 18.3337 13.8587 18.3318C13.6542 18.3298 13.4744 18.2513 13.3193 18.0963C13.1744 17.9412 13.0994 17.7655 13.0943 17.5693C13.0891 17.3732 13.1641 17.1975 13.3193 17.0423L16.6115 13.7501Z" fill="white"/>
</g>
</svg>
