<svg
    width="16"
    height="12"
    viewBox="0 0 16 12"
    fill="none"
    xmlns="http://www.w3.org/2000/svg"
    >
    <path
        d="M12.6115 6.75008H1.25C1.03717 6.75008 0.859 6.67825 0.7155 6.53458C0.571833 6.39108 0.5 6.21291 0.5 6.00008C0.5 5.78725 0.571833 5.60908 0.7155 5.46558C0.859 5.32191 1.03717 5.25008 1.25 5.25008H12.6115L9.31925 1.95783C9.17058 1.809 9.09717 1.63491 9.099 1.43558C9.101 1.23625 9.17442 1.059 9.31925 0.903831C9.47442 0.748831 9.65258 0.668746 9.85375 0.66358C10.0551 0.658413 10.2333 0.733413 10.3885 0.88858L14.8673 5.36733C14.9609 5.461 15.0269 5.55975 15.0652 5.66358C15.1037 5.76741 15.123 5.87958 15.123 6.00008C15.123 6.12058 15.1037 6.23275 15.0652 6.33658C15.0269 6.44041 14.9609 6.53916 14.8673 6.63283L10.3885 11.1116C10.2397 11.2602 10.0631 11.3337 9.85875 11.3318C9.65425 11.3298 9.47442 11.2513 9.31925 11.0963C9.17442 10.9412 9.09942 10.7655 9.09425 10.5693C9.08908 10.3732 9.16408 10.1975 9.31925 10.0423L12.6115 6.75008Z"
        fill="#0D4AE7"
    />
</svg>