<?xml version="1.0" encoding="UTF-8"?>
<svg width="32" height="32" viewBox="0 0 32 32" fill="none" xmlns="http://www.w3.org/2000/svg">
  <circle cx="16" cy="16" r="16" fill="#F7931A"/>
  <path d="M21.5 14.25C21.5 12.25 19.875 11.625 18.125 11.375V9.5H16.625V11.25H15.375V9.5H13.875V11.375H11.25V12.875H12.625C13.125 12.875 13.375 13 13.375 13.5V18.5C13.375 19.125 13 19.125 12.625 19.125H11.25V20.625H13.875V22.5H15.375V20.75H16.625V22.5H18.125V20.625C20.375 20.375 21.5 19.375 21.5 17.75C21.5 16.25 20.75 15.5 19.5 15.25C20.5 14.875 21.5 14.25 21.5 14.25ZM15.375 13.5H17.75C18.75 13.5 19.5 13.875 19.5 15C19.5 16.125 18.75 16.5 17.75 16.5H15.375V13.5ZM18.125 18.875H15.375V15.875H18.125C19.25 15.875 19.875 16.375 19.875 17.375C19.875 18.375 19.25 18.875 18.125 18.875Z" fill="white"/>
</svg> 