<svg width="70" height="70" viewBox="0 0 70 70" fill="none" xmlns="http://www.w3.org/2000/svg">
<path d="M29.7959 42.8694L21.2783 34.3508C20.7704 33.8436 20.1321 33.5839 19.3633 33.5717C18.5952 33.5601 17.9453 33.8198 17.4136 34.3508C16.8825 34.8825 16.617 35.5266 16.617 36.2832C16.617 37.0397 16.8825 37.6838 17.4136 38.2155L27.4758 48.2777C28.1389 48.9402 28.9123 49.2714 29.7959 49.2714C30.6796 49.2714 31.4529 48.9402 32.116 48.2777L52.5155 27.8783C53.0227 27.3704 53.2824 26.7321 53.2947 25.9633C53.3063 25.1952 53.0466 24.5453 52.5155 24.0136C51.9838 23.4825 51.3397 23.217 50.5832 23.217C49.8266 23.217 49.1825 23.4825 48.6508 24.0136L29.7959 42.8694ZM35.0063 69.8332C30.1883 69.8332 25.6596 68.9189 21.4203 67.0905C17.1811 65.2621 13.4936 62.7806 10.358 59.6463C7.22239 56.5119 4.73975 52.8259 2.91009 48.5885C1.08103 44.3511 0.166504 39.8236 0.166504 35.0063C0.166504 30.1883 1.08073 25.6596 2.90917 21.4203C4.73761 17.1811 7.21903 13.4936 10.3534 10.358C13.4878 7.22239 17.1737 4.73975 21.4112 2.91009C25.6486 1.08103 30.176 0.166504 34.9934 0.166504C39.8114 0.166504 44.3401 1.08072 48.5793 2.90917C52.8186 4.73761 56.5061 7.21903 59.6417 10.3534C62.7773 13.4878 65.2599 17.1737 67.0896 21.4112C68.9186 25.6486 69.8332 30.176 69.8332 34.9934C69.8332 39.8114 68.9189 44.3401 67.0905 48.5793C65.2621 52.8186 62.7806 56.5061 59.6463 59.6417C56.5119 62.7773 52.8259 65.2599 48.5885 67.0896C44.3511 68.9186 39.8236 69.8332 35.0063 69.8332Z" fill="#4DCA6A"/>
</svg>
