<?xml version="1.0" encoding="UTF-8"?>
<svg width="60" height="20" viewBox="0 0 60 20" fill="none" xmlns="http://www.w3.org/2000/svg">
  <path d="M26.4773 16.4262H22.3604L25.0593 3.70117H29.1762L26.4773 16.4262Z" fill="#00579F"/>
  <path d="M40.2167 4.0401C39.4552 3.7793 38.2295 3.48438 36.7325 3.48438C32.8869 3.48438 30.1211 5.49023 30.1016 8.3623C30.0627 10.4261 32.0725 11.5752 33.5889 12.2581C35.1442 12.959 35.6574 13.4136 35.6574 14.0385C35.6379 15.0117 34.4317 15.4473 33.2839 15.4473C31.7091 15.4473 30.8696 15.2256 29.5854 14.7025L29.0138 14.4417L28.4033 17.8935C29.2817 18.252 30.9149 18.5713 32.6065 18.5908C36.6741 18.5908 39.3925 16.6044 39.4314 13.5573C39.4509 11.9044 38.3227 10.6382 35.9924 9.6455C34.5539 8.98047 33.6754 8.52539 33.6754 7.82227C33.6949 7.17773 34.4122 6.5332 35.8702 6.5332C37.0569 6.49414 37.9549 6.77539 38.6579 7.05664L39.0513 7.21875L39.6423 3.8623L40.2167 4.0401Z" fill="#00579F"/>
  <path d="M45.8648 11.4902C46.2192 10.5366 47.5229 6.92773 47.5229 6.92773C47.5034 6.96679 47.8578 5.93359 48.0532 5.2793L48.3296 6.79492C48.3296 6.79492 49.1495 10.5952 49.3254 11.4902H45.8648ZM51.1735 3.70117H48.0922C47.1747 3.70117 46.4717 3.96289 46.0393 4.87695L40.1582 16.4262H44.3921C44.3921 16.4262 45.1339 14.4007 45.3098 13.9551H49.9749C50.1118 14.5605 50.5052 16.4262 50.5052 16.4262H54.2334L51.1735 3.70117Z" fill="#00579F"/>
  <path d="M19.0933 3.70117L15.1502 12.4407L14.7178 10.459C14.0148 8.15625 11.8291 5.67188 9.38934 4.36523L12.9669 16.4067H17.2203L23.3463 3.70117H19.0933Z" fill="#00579F"/>
  <path d="M10.8921 3.70117H4.51044L4.45154 4.01562C9.09844 5.20508 12.1859 7.58789 13.7217 10.459L12.2443 4.89648C11.9679 3.98242 11.4937 3.72071 10.8921 3.70117Z" fill="#FAA61A"/>
</svg> 