<svg width="48" height="48" viewBox="0 0 48 48" fill="none" xmlns="http://www.w3.org/2000/svg">
  <circle cx="24" cy="24" r="24" fill="#F7931A"/>
  <path d="M34.8375 20.7C35.1375 17.7 32.8875 16.2 29.9375 15.15L31.0875 10.5L28.3875 9.75L27.2375 14.25C26.5875 14.1 25.9375 13.95 25.2375 13.8L26.3875 9.3L23.6875 8.55L22.5375 13.2C21.9375 13.05 21.3375 12.9 20.7375 12.75L20.7375 12.6L16.9875 11.55L16.1875 14.4C16.1875 14.4 18.2375 14.85 18.1875 14.85C19.3875 15.15 19.5375 15.9 19.5375 16.5L18.2375 21.75C18.2875 21.75 18.3375 21.75 18.3875 21.9L18.1875 21.75L16.3875 29.1C16.2375 29.4 15.9375 30 15.1875 29.7C15.1875 29.85 13.1875 29.25 13.1875 29.25L11.6875 32.25L15.1875 33.3C15.7875 33.45 16.3875 33.6 16.9875 33.75L15.7875 38.4L18.4875 39.15L19.6375 34.5C20.2875 34.65 20.9375 34.8 21.5875 35.1L20.4375 39.6L23.1375 40.35L24.3375 35.7C28.3875 36.45 31.3875 36.15 32.6375 32.4C33.6375 29.4 32.6375 27.6 30.5875 26.4C32.0875 26.1 33.2375 25.05 33.5375 23.1L33.5375 23.1C33.5375 23.1 33.5375 23.1 33.5375 23.1C33.8375 22.35 34.7375 21.15 34.8375 20.7ZM28.3875 30.6C27.6375 33.6 22.9875 32.1 21.2375 31.65L22.7875 25.5C24.5375 25.95 29.1375 27.45 28.3875 30.6ZM29.1375 23.1C28.3875 25.8 24.5375 24.45 23.0875 24.15L24.4875 18.6C25.9375 18.9 29.8875 20.25 29.1375 23.1Z" fill="white"/>
</svg> 