<svg width="48" height="32" viewBox="0 0 48 32" fill="none" xmlns="http://www.w3.org/2000/svg">
  <path d="M17.4868 20.8571H14.1097L16.1934 11.1429H19.5705L17.4868 20.8571Z" fill="#2566AF"/>
  <path d="M27.8613 11.4286C27.2055 11.2 26.1239 11 24.7165 11C21.6652 11 19.4987 12.6 19.4987 14.8571C19.4987 16.5714 21.0889 17.5714 22.2532 18.1429C23.4176 18.7143 23.8476 19.0857 23.8476 19.6571C23.8476 20.4571 22.8487 20.8571 21.9326 20.8571C20.6855 20.8571 20.0297 20.7143 18.9481 20.2857L18.5181 20.1429L18.0881 23C18.8266 23.2857 20.2339 23.5714 21.7413 23.5714C25.0355 23.5714 27.1192 22 27.1192 19.6C27.1192 18.2857 26.2031 17.2857 24.3692 16.4286C23.2047 15.8571 22.4663 15.4857 22.4663 14.8571C22.4663 14.2857 23.0392 13.7143 24.3692 13.7143C25.4508 13.7143 26.2721 13.8571 26.8452 14.1429L27.1192 14.2857L27.5492 11.5714L27.8613 11.4286Z" fill="#2566AF"/>
  <path d="M32.2471 17.1429C32.5592 16.2857 33.7236 13.1429 33.7236 13.1429H36.7749L35.9537 15.0571C35.9537 15.0571 35.1326 16.8571 34.8205 17.5714L34.6292 18.1429C34.4379 17.7143 32.9305 13.1429 32.9305 13.1429H29.4005L33.1507 20.5714L29.9734 23.4286H33.3421L38.7758 11.1429H35.2458L32.2471 17.1429Z" fill="#2566AF"/>
  <path d="M11.7347 11.1429L8.44043 19.0857L8.12835 17.7143C7.49518 15.7714 5.71885 13.7143 3.72727 12.5714L6.71777 20.8571H10.2478L15.2741 11.1429H11.7347Z" fill="#2566AF"/>
  <path d="M5.52756 11.1429H0.0834961L0 11.4286C4.25039 12.4286 7.0652 14.7143 8.12835 17.7143L7.0652 11.5714C6.87391 11.2857 6.28356 11.1429 5.52756 11.1429Z" fill="#EC982D"/>
</svg> 